<?xml version="1.0"?>
<svg xmlns="http://www.w3.org/2000/svg" xmlns:xlink="http://www.w3.org/1999/xlink" version="1.1" viewBox="0 0 192 192" width="50px" height="50px"><g fill="none" fill-rule="nonzero" stroke="none" stroke-width="1" stroke-linecap="butt" stroke-linejoin="miter" stroke-miterlimit="10" stroke-dasharray="" stroke-dashoffset="0" font-family="none" font-weight="none" font-size="none" text-anchor="none" style="mix-blend-mode: normal"><path d="M0,192v-192h192v192z" fill="none"/><g fill="#00bfa5"><path d="M0,26.88v11.1825c25.75872,22.26048 78.84312,68.13876 83.19,71.925c5.4144,4.71168 10.75944,5.22 12.81,5.22c2.05056,0 7.39944,-0.50466 12.81,-5.2125c4.1856,-3.64416 55.48056,-48.42666 83.19,-72.6225v-10.4925zM192,47.55c-28.46208,24.84864 -74.21382,64.79088 -78.1575,68.22c-7.36128,6.40896 -14.93178,7.1025 -17.8425,7.1025c-2.91072,0 -10.48122,-0.69336 -17.8425,-7.11c-4.08192,-3.54816 -51.10854,-44.18958 -78.1575,-67.5675v116.925h192z"/></g></g></svg>
