<?xml version="1.0" encoding="UTF-8" standalone="no"?>
<!DOCTYPE svg PUBLIC "-//W3C//DTD SVG 1.1//EN" "http://www.w3.org/Graphics/SVG/1.1/DTD/svg11.dtd">
<svg version="1.1" xmlns="http://www.w3.org/2000/svg" xmlns:xlink="http://www.w3.org/1999/xlink" preserveAspectRatio="xMidYMid meet" viewBox="0 0 640 640" width="100" height="100"><defs><path d="M162.85 451.65C153.04 451.65 145.03 459.55 145.03 469.46C145.03 479.26 152.94 487.27 162.85 487.27C194.25 487.27 445.44 487.27 476.84 487.27C486.64 487.27 494.65 479.37 494.65 469.46C494.55 459.55 486.64 451.65 476.73 451.65C413.96 451.65 194.24 451.65 162.85 451.65Z" id="b1jPPwdkVW"></path><path d="M162.85 529.65C153.04 529.65 145.03 537.55 145.03 547.46C145.03 557.26 152.94 565.27 162.85 565.27C194.25 565.27 445.44 565.27 476.84 565.27C486.64 565.27 494.65 557.36 494.65 547.46C494.55 537.55 486.64 529.65 476.73 529.65C413.96 529.65 194.24 529.65 162.85 529.65Z" id="b15BdCBpy8"></path><path d="M326.05 74.98L329.13 75.3L332.18 75.73L335.19 76.28L338.15 76.95L341.07 77.74L343.95 78.63L346.77 79.63L349.55 80.74L352.27 81.96L354.93 83.27L357.54 84.68L360.08 86.19L362.56 87.8L364.98 89.49L367.32 91.28L369.59 93.15L371.79 95.1L373.91 97.14L375.96 99.26L377.92 101.45L379.79 103.72L381.59 106.06L383.29 108.47L384.9 110.94L386.41 113.48L387.83 116.08L389.15 118.74L390.37 121.46L391.49 124.24L392.49 127.06L393.39 129.94L394.18 132.86L394.85 135.83L395.41 138.84L395.85 141.89L396.16 144.97L396.35 148.1L396.42 151.25L396.35 154.41L396.16 157.53L395.85 160.62L395.41 163.67L394.85 166.68L394.18 169.65L393.39 172.57L392.49 175.45L391.49 178.28L390.37 181.05L389.15 183.78L387.83 186.44L386.41 189.05L384.9 191.59L383.29 194.07L381.59 196.48L379.79 198.83L377.92 201.1L375.96 203.29L373.91 205.41L371.79 207.45L369.59 209.41L367.32 211.29L364.98 213.08L362.56 214.78L360.08 216.38L357.54 217.9L354.93 219.31L352.27 220.63L349.55 221.85L346.77 222.96L343.95 223.97L341.07 224.86L338.15 225.65L335.19 226.32L332.18 226.87L329.13 227.31L326.05 227.62L322.94 227.81L319.79 227.88L316.64 227.81L313.53 227.62L310.44 227.31L307.4 226.87L304.39 226.32L301.43 225.65L298.5 224.86L295.63 223.97L292.8 222.96L290.03 221.85L287.31 220.63L284.64 219.32L282.04 217.9L279.5 216.39L277.02 214.78L274.6 213.08L272.26 211.3L269.99 209.42L267.79 207.47L265.66 205.43L263.62 203.31L261.66 201.11L259.78 198.85L257.99 196.51L256.29 194.1L254.68 191.62L253.16 189.08L251.74 186.48L250.42 183.82L249.21 181.1L248.09 178.33L247.08 175.5L246.18 172.63L245.4 169.71L244.72 166.75L244.17 163.74L243.73 160.7L243.42 157.62L243.23 154.5L243.16 151.36L243.23 148.2L243.42 145.08L243.73 141.99L244.17 138.94L244.72 135.93L245.4 132.96L246.18 130.04L247.08 127.16L248.09 124.33L249.21 121.55L250.42 118.83L251.74 116.17L253.16 113.56L254.68 111.02L256.29 108.54L257.99 106.13L259.78 103.78L261.66 101.51L263.62 99.31L265.66 97.19L267.79 95.15L269.99 93.19L272.26 91.32L274.6 89.53L277.02 87.83L279.5 86.22L282.04 84.71L284.64 83.29L287.31 81.97L290.03 80.76L292.8 79.65L295.63 78.64L298.5 77.74L301.43 76.96L304.39 76.29L307.4 75.73L310.44 75.3L313.53 74.98L316.64 74.79L319.79 74.73L322.94 74.79L326.05 74.98ZM316.44 110.49L314.79 110.66L313.16 110.89L311.56 111.19L309.97 111.55L308.41 111.97L306.87 112.45L305.36 112.99L303.88 113.59L302.43 114.24L301.01 114.95L299.62 115.71L298.26 116.52L296.94 117.38L295.65 118.29L294.4 119.24L293.19 120.25L292.01 121.29L290.88 122.39L289.79 123.52L288.75 124.69L287.75 125.91L286.79 127.16L285.88 128.45L285.03 129.77L284.22 131.13L283.46 132.52L282.76 133.94L282.11 135.39L281.52 136.87L280.98 138.38L280.5 139.91L280.08 141.47L279.72 143.05L279.43 144.65L279.2 146.27L279.03 147.92L278.93 149.58L278.89 151.25L278.93 152.93L279.03 154.59L279.2 156.23L279.43 157.85L279.73 159.46L280.09 161.04L280.51 162.59L280.99 164.13L281.53 165.63L282.13 167.11L282.78 168.57L283.48 169.99L284.24 171.38L285.05 172.73L285.91 174.06L286.82 175.35L287.78 176.6L288.78 177.81L289.83 178.99L290.92 180.12L292.06 181.21L293.23 182.26L294.44 183.26L295.69 184.22L296.98 185.13L298.31 185.99L299.66 186.8L301.05 187.56L302.48 188.26L303.93 188.92L305.41 189.51L306.91 190.05L308.45 190.53L310 190.95L311.59 191.31L313.19 191.61L314.81 191.84L316.45 192.01L318.11 192.11L319.79 192.15L321.46 192.11L323.12 192.01L324.77 191.84L326.39 191.61L327.99 191.31L329.57 190.95L331.13 190.53L332.66 190.05L334.17 189.51L335.65 188.92L337.1 188.26L338.52 187.56L339.91 186.8L341.27 185.99L342.59 185.13L343.88 184.22L345.13 183.26L346.35 182.26L347.52 181.21L348.66 180.12L349.75 178.99L350.8 177.81L351.8 176.6L352.76 175.35L353.66 174.06L354.53 172.73L355.34 171.38L356.09 169.99L356.8 168.56L357.45 167.11L358.05 165.63L358.59 164.13L359.07 162.59L359.49 161.04L359.85 159.46L360.15 157.85L360.38 156.23L360.55 154.59L360.65 152.93L360.69 151.25L360.65 149.58L360.55 147.92L360.38 146.27L360.15 144.65L359.85 143.05L359.49 141.47L359.08 139.91L358.6 138.38L358.06 136.87L357.47 135.39L356.82 133.94L356.11 132.52L355.36 131.13L354.55 129.77L353.69 128.45L352.79 127.16L351.83 125.91L350.83 124.69L349.79 123.52L348.7 122.39L347.56 121.29L346.39 120.25L345.18 119.24L343.93 118.29L342.64 117.38L341.32 116.52L339.96 115.71L338.57 114.95L337.15 114.24L335.7 113.59L334.21 112.99L332.7 112.45L331.17 111.97L329.61 111.55L328.02 111.19L326.42 110.89L324.79 110.66L323.14 110.49L321.47 110.39L319.79 110.36L318.11 110.39L316.44 110.49Z" id="c2mWT34lF"></path><path d="M330.26 247.57L335.43 247.81L340.61 248.14L345.77 248.56L350.93 249.09L356.08 249.7L361.22 250.41L366.35 251.22L371.46 252.12L376.56 253.12L381.64 254.21L386.7 255.39L391.74 256.68L396.77 258.05L401.76 259.52L406.74 261.09L411.69 262.75L416.61 264.5L421.5 266.35L423.09 267L424.64 267.7L426.17 268.44L427.67 269.22L429.14 270.06L430.58 270.93L431.99 271.85L433.37 272.8L434.72 273.8L436.03 274.84L437.32 275.91L438.56 277.03L439.78 278.18L440.96 279.36L442.1 280.58L443.2 281.83L444.27 283.11L445.3 284.42L446.29 285.77L447.25 287.14L448.16 288.54L449.03 289.97L449.86 291.43L450.65 292.91L451.4 294.41L452.1 295.93L452.76 297.48L453.37 299.05L453.94 300.64L454.47 302.25L454.94 303.88L455.37 305.52L455.75 307.18L456.09 308.85L456.37 310.54L456.6 312.24L456.79 313.96L456.92 315.68L457 317.41L457.02 319.16L457.02 391.46L457.01 392.2L456.96 392.93L456.89 393.66L456.79 394.37L456.66 395.07L456.5 395.77L456.32 396.45L456.11 397.12L455.88 397.78L455.62 398.43L455.33 399.06L455.03 399.68L454.7 400.29L454.35 400.88L453.97 401.45L453.58 402.01L453.16 402.56L452.72 403.08L452.27 403.59L451.79 404.08L451.3 404.56L450.79 405.01L450.26 405.45L449.71 405.86L449.15 406.25L448.58 406.62L447.99 406.97L447.38 407.3L446.76 407.6L446.13 407.89L445.48 408.14L444.83 408.37L444.16 408.58L443.48 408.76L442.79 408.92L442.09 409.04L441.38 409.14L440.67 409.22L439.94 409.26L439.21 409.28L200.48 409.28L199.74 409.26L199.02 409.22L198.3 409.14L197.59 409.04L196.9 408.91L196.21 408.76L195.53 408.57L194.86 408.36L194.2 408.13L193.56 407.87L192.93 407.59L192.31 407.28L191.7 406.95L191.11 406.6L190.54 406.22L189.98 405.83L189.43 405.41L188.91 404.98L188.4 404.52L187.91 404.04L187.43 403.55L186.98 403.04L186.55 402.51L186.13 401.97L185.74 401.41L185.37 400.83L185.02 400.24L184.69 399.63L184.39 399.01L184.11 398.38L183.86 397.74L183.63 397.08L183.42 396.41L183.25 395.73L183.1 395.04L182.97 394.34L182.88 393.64L182.81 392.92L182.77 392.19L182.77 391.46L182.77 319.16L182.79 317.41L182.87 315.68L183 313.96L183.19 312.24L183.42 310.54L183.7 308.85L184.04 307.18L184.42 305.52L184.85 303.88L185.32 302.25L185.85 300.64L186.42 299.05L187.03 297.48L187.69 295.93L188.39 294.41L189.14 292.91L189.93 291.43L190.76 289.97L191.63 288.54L192.54 287.14L193.5 285.77L194.49 284.42L195.52 283.11L196.59 281.83L197.69 280.58L198.83 279.36L200.01 278.18L201.23 277.03L202.47 275.91L203.76 274.84L205.07 273.8L206.42 272.8L207.8 271.85L209.21 270.93L210.65 270.06L212.12 269.22L213.62 268.44L215.15 267.7L216.7 267L218.29 266.35L223.18 264.5L228.1 262.75L233.05 261.09L238.02 259.52L243.02 258.05L248.05 256.68L253.09 255.39L258.15 254.21L263.23 253.12L268.33 252.12L273.44 251.22L278.57 250.41L283.71 249.7L288.86 249.09L294.02 248.56L299.18 248.14L304.36 247.81L309.53 247.57L314.71 247.43L319.89 247.38L325.08 247.43L330.26 247.57ZM310.85 283.3L306.32 283.51L301.81 283.8L297.29 284.17L292.79 284.62L288.29 285.16L283.8 285.78L279.32 286.48L274.86 287.27L270.41 288.13L265.97 289.08L261.55 290.12L257.14 291.23L252.75 292.43L248.39 293.71L244.04 295.07L239.72 296.52L235.42 298.05L231.15 299.66L230.57 299.89L230.01 300.14L229.46 300.41L228.92 300.69L228.39 300.99L227.86 301.31L227.35 301.65L226.86 302L226.37 302.37L225.89 302.75L225.43 303.15L224.98 303.56L224.54 303.99L224.11 304.43L223.7 304.88L223.3 305.34L222.91 305.82L222.54 306.31L222.18 306.81L221.83 307.33L221.5 307.85L221.19 308.38L220.88 308.93L220.6 309.48L220.33 310.04L220.07 310.61L219.83 311.19L219.61 311.77L219.4 312.37L219.21 312.97L219.04 313.57L218.89 314.19L218.75 314.81L218.63 315.43L218.52 316.06L218.44 316.69L218.37 317.33L218.33 317.97L218.3 318.62L218.29 319.26L218.29 373.75L421.5 373.75L421.5 319.26L421.49 318.61L421.47 317.96L421.42 317.31L421.35 316.67L421.27 316.03L421.16 315.4L421.04 314.78L420.9 314.16L420.75 313.54L420.58 312.94L420.39 312.34L420.18 311.75L419.96 311.16L419.72 310.59L419.46 310.02L419.19 309.46L418.91 308.91L418.61 308.37L418.29 307.85L417.96 307.33L417.61 306.82L417.25 306.32L416.88 305.83L416.49 305.36L416.09 304.9L415.68 304.45L415.25 304.01L414.82 303.59L414.36 303.18L413.9 302.78L413.42 302.4L412.94 302.03L412.44 301.68L411.93 301.34L411.41 301.02L410.87 300.71L410.33 300.42L409.78 300.15L409.22 299.9L408.64 299.66L404.37 298.05L400.07 296.52L395.75 295.07L391.4 293.71L387.04 292.43L382.65 291.23L378.24 290.12L373.82 289.08L369.38 288.13L364.93 287.27L360.47 286.48L355.99 285.78L351.5 285.16L347 284.62L342.5 284.17L337.98 283.8L333.47 283.51L328.94 283.3L324.42 283.18L319.9 283.14L315.37 283.18L310.85 283.3Z" id="azZwhmxSl"></path><path d="M514.64 0.17L516.7 0.38L518.73 0.67L520.74 1.05L522.72 1.5L524.68 2.03L526.6 2.63L528.49 3.3L530.34 4.05L532.16 4.87L533.95 5.75L535.69 6.7L537.39 7.72L539.05 8.8L540.67 9.94L542.24 11.14L543.77 12.4L545.24 13.72L546.67 15.09L548.04 16.51L549.36 17.98L550.62 19.51L551.83 21.08L552.98 22.7L554.06 24.37L555.09 26.07L556.05 27.82L556.94 29.61L557.77 31.44L558.53 33.3L559.22 35.2L559.84 37.13L560.38 39.09L560.85 41.09L561.24 43.11L561.55 45.15L561.79 47.22L561.94 49.32L562 51.44L562 588.56L561.96 590.68L561.83 592.77L561.62 594.85L561.33 596.89L560.95 598.91L560.5 600.91L559.98 602.87L559.37 604.8L558.7 606.7L557.95 608.56L557.14 610.39L556.25 612.18L555.3 613.93L554.28 615.63L553.2 617.3L552.06 618.92L550.86 620.49L549.6 622.01L548.29 623.49L546.92 624.91L545.49 626.28L544.02 627.6L542.49 628.86L540.92 630.06L539.3 631.2L537.64 632.28L535.93 633.3L534.18 634.25L532.39 635.13L530.56 635.95L528.7 636.7L526.8 637.37L524.87 637.97L522.91 638.5L520.92 638.95L518.9 639.32L516.85 639.62L514.78 639.83L512.68 639.96L510.57 640L129.43 640L127.32 639.96L125.22 639.83L123.15 639.62L121.1 639.32L119.08 638.95L117.09 638.5L115.13 637.97L113.2 637.37L111.3 636.7L109.43 635.95L107.61 635.13L105.82 634.25L104.07 633.3L102.36 632.28L100.7 631.2L99.08 630.06L97.51 628.86L95.98 627.6L94.51 626.28L93.08 624.91L91.71 623.49L90.4 622.01L89.14 620.49L87.94 618.92L86.8 617.3L85.72 615.63L84.7 613.93L83.75 612.18L82.86 610.39L82.05 608.56L81.3 606.7L80.62 604.8L80.02 602.87L79.49 600.91L79.04 598.91L78.67 596.89L78.38 594.85L78.17 592.77L78.04 590.68L78 588.56L78 136.39L78.01 135.36L78.04 134.34L78.09 133.32L78.15 132.31L78.24 131.3L78.35 130.29L78.48 129.29L78.62 128.29L78.79 127.29L78.97 126.31L79.18 125.32L79.4 124.35L79.64 123.38L79.9 122.41L80.18 121.45L80.47 120.5L80.79 119.55L81.12 118.62L81.47 117.68L81.84 116.76L82.23 115.84L82.64 114.93L83.06 114.03L83.51 113.14L83.97 112.25L84.45 111.38L84.94 110.51L85.46 109.65L85.99 108.8L86.53 107.96L87.1 107.13L87.68 106.31L88.28 105.5L88.9 104.7L89.54 103.91L90.19 103.13L90.86 102.37L91.54 101.61L92.25 100.86L92.96 100.13L178.13 14.97L178.86 14.25L179.61 13.55L180.36 12.86L181.13 12.19L181.91 11.54L182.7 10.91L183.5 10.29L184.31 9.69L185.13 9.1L185.96 8.54L186.8 7.99L187.65 7.46L188.51 6.94L189.37 6.45L190.25 5.97L191.14 5.51L192.03 5.07L192.93 4.64L193.84 4.24L194.76 3.85L195.68 3.48L196.61 3.12L197.55 2.79L198.5 2.48L199.45 2.18L200.41 1.9L201.37 1.64L202.35 1.4L203.32 1.18L204.31 0.97L205.29 0.79L206.29 0.63L207.28 0.48L208.29 0.35L209.29 0.25L210.3 0.16L211.32 0.09L212.34 0.04L213.36 0.01L214.39 0L510.46 0L512.56 0.04L514.64 0.17ZM218.29 122.48L218.27 123.22L218.23 123.95L218.16 124.67L218.05 125.38L217.92 126.09L217.77 126.78L217.59 127.46L217.38 128.13L217.14 128.79L216.88 129.44L216.6 130.07L216.29 130.69L215.96 131.3L215.61 131.89L215.24 132.47L214.84 133.03L214.42 133.57L213.99 134.1L213.53 134.61L213.06 135.1L212.56 135.57L212.05 136.03L211.52 136.46L210.98 136.87L210.42 137.27L209.84 137.64L209.25 137.99L208.65 138.31L208.03 138.62L207.39 138.9L206.75 139.16L206.09 139.39L205.42 139.59L204.74 139.78L204.05 139.93L203.36 140.06L202.65 140.16L201.93 140.23L201.21 140.27L200.48 140.29L113.41 140.29L113.41 588.77L113.43 589.42L113.47 590.06L113.53 590.69L113.62 591.31L113.73 591.93L113.87 592.54L114.03 593.14L114.22 593.73L114.42 594.3L114.65 594.87L114.9 595.43L115.17 595.98L115.46 596.51L115.77 597.03L116.1 597.54L116.45 598.04L116.82 598.52L117.2 598.98L117.61 599.43L118.02 599.87L118.46 600.29L118.91 600.69L119.38 601.07L119.86 601.44L120.35 601.79L120.86 602.12L121.38 602.43L121.91 602.72L122.46 602.99L123.02 603.24L123.59 603.47L124.17 603.67L124.75 603.86L125.35 604.02L125.96 604.16L126.58 604.27L127.2 604.36L127.83 604.43L128.47 604.46L129.12 604.48L510.46 604.48L511.11 604.46L511.75 604.43L512.38 604.36L513 604.27L513.62 604.16L514.23 604.02L514.82 603.86L515.41 603.67L515.99 603.47L516.56 603.24L517.12 602.99L517.67 602.72L518.2 602.42L518.72 602.11L519.23 601.78L519.72 601.43L520.2 601.06L520.67 600.68L521.12 600.27L521.56 599.85L521.97 599.42L522.38 598.96L522.76 598.5L523.13 598.01L523.48 597.51L523.81 597L524.12 596.48L524.41 595.94L524.68 595.39L524.93 594.83L525.16 594.26L525.36 593.67L525.55 593.08L525.71 592.47L525.85 591.86L525.96 591.24L526.05 590.61L526.11 589.97L526.15 589.32L526.17 588.67L526.17 293.33L501.92 293.33L501.18 293.32L500.45 293.27L499.73 293.2L499.02 293.1L498.31 292.97L497.62 292.81L496.94 292.63L496.27 292.42L495.61 292.19L494.96 291.93L494.33 291.64L493.71 291.34L493.1 291.01L492.51 290.65L491.93 290.28L491.37 289.88L490.83 289.47L490.3 289.03L489.79 288.58L489.3 288.1L488.83 287.61L488.38 287.1L487.94 286.57L487.53 286.02L487.13 285.46L486.76 284.89L486.41 284.3L486.09 283.69L485.78 283.07L485.5 282.44L485.24 281.79L485.01 281.14L484.81 280.47L484.62 279.79L484.47 279.1L484.34 278.4L484.24 277.69L484.17 276.98L484.13 276.25L484.11 275.52L484.13 274.78L484.17 274.05L484.24 273.33L484.34 272.61L484.47 271.91L484.63 271.22L484.81 270.53L485.02 269.86L485.26 269.2L485.52 268.56L485.8 267.92L486.11 267.3L486.44 266.7L486.79 266.11L487.16 265.53L487.56 264.97L487.97 264.43L488.41 263.9L488.87 263.39L489.34 262.9L489.83 262.42L490.35 261.97L490.87 261.54L491.42 261.12L491.98 260.73L492.56 260.36L493.15 260.01L493.75 259.68L494.37 259.38L495 259.1L495.65 258.84L496.31 258.61L496.98 258.4L497.65 258.22L498.34 258.07L499.04 257.94L499.75 257.84L500.47 257.77L501.19 257.72L501.92 257.71L526.17 257.71L526.17 226.09L459.97 226.09L459.23 226.07L458.5 226.03L457.78 225.95L457.07 225.85L456.36 225.72L455.67 225.57L454.99 225.38L454.32 225.17L453.66 224.94L453.01 224.68L452.38 224.4L451.76 224.09L451.15 223.76L450.56 223.41L449.98 223.03L449.42 222.64L448.88 222.22L448.35 221.79L447.84 221.33L447.35 220.86L446.88 220.36L446.43 219.85L445.99 219.32L445.58 218.78L445.18 218.22L444.81 217.64L444.46 217.05L444.14 216.44L443.83 215.82L443.55 215.19L443.29 214.55L443.06 213.89L442.86 213.22L442.67 212.54L442.52 211.85L442.39 211.15L442.29 210.45L442.22 209.73L442.18 209.01L442.16 208.27L442.18 207.53L442.22 206.8L442.29 206.08L442.4 205.37L442.52 204.66L442.68 203.97L442.86 203.29L443.07 202.62L443.31 201.96L443.57 201.31L443.85 200.68L444.16 200.06L444.49 199.45L444.84 198.86L445.21 198.28L445.61 197.72L446.02 197.18L446.46 196.65L446.92 196.14L447.39 195.65L447.88 195.18L448.4 194.73L448.92 194.29L449.47 193.88L450.03 193.48L450.61 193.11L451.2 192.76L451.8 192.44L452.42 192.13L453.06 191.85L453.7 191.59L454.36 191.36L455.03 191.16L455.7 190.97L456.39 190.82L457.09 190.69L457.8 190.59L458.52 190.52L459.24 190.48L459.97 190.46L526.17 190.46L526.17 51.12L526.15 50.47L526.11 49.84L526.05 49.2L525.96 48.58L525.85 47.96L525.71 47.35L525.55 46.76L525.36 46.17L525.16 45.59L524.93 45.02L524.68 44.46L524.41 43.92L524.12 43.38L523.81 42.86L523.48 42.35L523.13 41.86L522.76 41.38L522.38 40.91L521.97 40.46L521.56 40.03L521.12 39.61L520.67 39.21L520.2 38.82L519.72 38.45L519.23 38.1L518.72 37.77L518.2 37.46L517.67 37.17L517.12 36.9L516.56 36.65L515.99 36.42L515.41 36.22L514.82 36.03L514.23 35.87L513.62 35.74L513 35.62L512.38 35.53L511.75 35.47L511.11 35.43L510.46 35.41L218.29 35.41L218.29 122.48ZM182.66 104.77L182.66 60.71L138.6 104.77L182.66 104.77Z" id="ceQCLZOVm"></path></defs><g><g><g><use xlink:href="#b1jPPwdkVW" opacity="1" fill="#00bfa5" fill-opacity="1"></use><g><use xlink:href="#b1jPPwdkVW" opacity="1" fill-opacity="0" stroke="#000000" stroke-width="1" stroke-opacity="0"></use></g></g><g><use xlink:href="#b15BdCBpy8" opacity="1" fill="#00bfa5" fill-opacity="1"></use><g><use xlink:href="#b15BdCBpy8" opacity="1" fill-opacity="0" stroke="#000000" stroke-width="1" stroke-opacity="0"></use></g></g><g><use xlink:href="#c2mWT34lF" opacity="1" fill="#00bfa5" fill-opacity="1"></use><g><use xlink:href="#c2mWT34lF" opacity="1" fill-opacity="0" stroke="#000000" stroke-width="1" stroke-opacity="0"></use></g></g><g><use xlink:href="#azZwhmxSl" opacity="1" fill="#00bfa5" fill-opacity="1"></use><g><use xlink:href="#azZwhmxSl" opacity="1" fill-opacity="0" stroke="#000000" stroke-width="1" stroke-opacity="0"></use></g></g><g><use xlink:href="#ceQCLZOVm" opacity="1" fill="#00bfa5" fill-opacity="1"></use><g><use xlink:href="#ceQCLZOVm" opacity="1" fill-opacity="0" stroke="#000000" stroke-width="1" stroke-opacity="0"></use></g></g></g></g></svg>